<?xml version="1.0" encoding="UTF-8" standalone="no"?>
<svg viewBox="0 0 900 600" height="600" width="900" xml:space="preserve" version="1.1" id="svg3650" sodipodi:docname="Zeichen_310_-_Ortstafel_Bad_Gateway,_StVO_2017.svg" inkscape:version="1.1.2 (0a00cf5339, 2022-02-04, custom)" xmlns:inkscape="http://www.inkscape.org/namespaces/inkscape" xmlns:sodipodi="http://sodipodi.sourceforge.net/DTD/sodipodi-0.dtd" xmlns="http://www.w3.org/2000/svg" xmlns:svg="http://www.w3.org/2000/svg" xmlns:rdf="http://www.w3.org/1999/02/22-rdf-syntax-ns#" xmlns:cc="http://creativecommons.org/ns#" xmlns:dc="http://purl.org/dc/elements/1.1/"><sodipodi:namedview id="namedview18" pagecolor="#505050" bordercolor="#eeeeee" borderopacity="1" inkscape:pageshadow="0" inkscape:pageopacity="0" inkscape:pagecheckerboard="0" showgrid="false" showguides="false" inkscape:zoom="1.0040916" inkscape:cx="399.86392" inkscape:cy="261.43033" inkscape:window-width="1920" inkscape:window-height="1027" inkscape:window-x="1080" inkscape:window-y="601" inkscape:window-maximized="1" inkscape:current-layer="layer2"/><metadata id="metadata3656"><rdf:RDF><cc:Work rdf:about=""><dc:format>image/svg+xml</dc:format><dc:type rdf:resource="http://purl.org/dc/dcmitype/StillImage"/></cc:Work></rdf:RDF></metadata><defs id="defs3654"><rect x="89.61875" y="136.1575" width="704.185" height="73.2375" id="rect32221"/><rect x="129.83352" y="187.48812" width="1362.0035" height="320.64339" id="rect22767"/><rect x="129.83353" y="187.48811" width="1362.0035" height="320.6434" id="rect22767-3"/></defs><g transform="matrix(1.25,0,0,-1.25,0,600)" id="g3658"><g id="g3660"><path id="path3662" style="fill:#f0c900;fill-opacity:1;fill-rule:evenodd;stroke:none" d="m 30,480 c 0,0 -29.977,0.008 -30,-30 L 0,30 C 0,30 -0.082,0 30,0 l 660,0 c 30.082,0 30,30 30,30 l 0,420 c -0.023,30.008 -30,30 -30,30 l -660,0 z"/><path id="path3664" style="fill:#000000;fill-opacity:1;fill-rule:evenodd;stroke:none" d="M 30,472 C 30,472 8.012,471.961 8,450 L 8,30 C 8,30 7.992,7.98 30,8 l 660.074,0 c 22.008,-0.02 22,22 22,22 l 0,420 c -0.011,21.961 -22,22 -22,22 L 30,472 Z m 0,-12 660.074,0 c 0,0 9.942,-0.004 9.961,-10 0.891,-137.652 0.176,-420 0.176,-420 -0.035,-9.73 -10.137,-10 -10.137,-10 L 30,20 c 0,0 -10.102,0.27 -10.141,10 0,0 -0.711,282.348 0.18,420 0.016,9.996 9.961,10 9.961,10 z"/><path id="path3666" style="fill:#000000;fill-opacity:1;fill-rule:nonzero;stroke:none" d="m 82.246,122.133 0,56.601 8.586,0 0,-29.175 0.195,0 23.27,29.175 10.215,0 -18.141,-22.336 20.047,-34.265 -10.18,0 -15.461,27.66 -9.945,-10.41 0,-17.25 -8.586,0 z m 51.817,0 0,40.324 8.117,0 0,-4.312 0.156,0 c 2.512,3.187 6.008,4.781 10.488,4.781 2.953,0 5.762,-1.039 8.43,-3.11 l -5.867,-6.992 c -1.758,1.321 -3.547,1.981 -5.36,1.981 -1.996,0 -3.8,-0.668 -5.418,-2 -1.621,-1.336 -2.429,-3.477 -2.429,-6.43 l 0,-24.242 -8.117,0 z m 64.476,17.094 -25.094,0 c 0,-3.317 0.899,-5.801 2.7,-7.461 1.8,-1.657 4.097,-2.485 6.894,-2.485 3.34,0 6.293,1.293 8.859,3.883 l 5.864,-5.008 c -1.992,-2.332 -4.239,-3.996 -6.739,-4.992 -2.5,-1 -5.109,-1.496 -7.828,-1.496 -4.144,0 -8.16,1.34 -12.043,4.02 -3.886,2.679 -5.828,8.164 -5.828,16.453 0,7.847 1.793,13.273 5.379,16.277 3.59,3.004 7.336,4.508 11.25,4.508 4.426,0 8.297,-1.535 11.613,-4.606 3.317,-3.07 4.973,-7.207 4.973,-12.41 l 0,-6.683 z m -25.094,6.683 17.016,0 c -0.133,3.028 -0.984,5.348 -2.566,6.953 -1.579,1.606 -3.559,2.407 -5.942,2.407 -2.41,0 -4.41,-0.801 -6.004,-2.407 -1.594,-1.605 -2.429,-3.925 -2.504,-6.953 z m 36.196,-23.777 0,40.324 8.121,0 0,-40.324 -8.121,0 z m 0,48.484 0,8.117 8.121,0 0,-8.117 -8.121,0 z m 16.734,-41.762 5.672,5.594 c 3.523,-3.445 7.758,-5.168 12.703,-5.168 2.305,0 4.207,0.434 5.711,1.301 1.504,0.867 2.254,2.156 2.254,3.867 0,2.356 -1.645,3.676 -4.934,3.961 l -7.148,0.66 c -3.34,0.258 -6.113,1.36 -8.313,3.301 -2.203,1.945 -3.304,4.652 -3.304,8.121 0,4.094 1.437,7.188 4.312,9.285 2.875,2.098 6.449,3.149 10.723,3.149 3.523,0 6.539,-0.5 9.051,-1.496 2.511,-1 4.765,-2.325 6.761,-3.985 l -5.011,-5.902 c -1.606,1.086 -3.266,1.98 -4.973,2.68 -1.711,0.699 -3.652,1.047 -5.828,1.047 -2.59,0 -4.391,-0.457 -5.399,-1.379 -1.011,-0.918 -1.515,-2.078 -1.515,-3.477 0,-0.879 0.375,-1.695 1.125,-2.445 0.75,-0.754 2.148,-1.207 4.195,-1.36 l 6.684,-0.468 c 4.168,-0.286 7.16,-1.575 8.972,-3.864 1.813,-2.293 2.719,-5.031 2.719,-8.218 0,-3.961 -1.617,-7.02 -4.855,-9.168 -3.239,-2.149 -7.188,-3.223 -11.848,-3.223 -6.707,0 -12.625,2.395 -17.754,7.187 z"/><path id="path3668" style="fill:#000000;fill-opacity:1;fill-rule:nonzero;stroke:none" d="m 299.816,128.934 5.672,6.449 c 2.125,-1.707 4.575,-3.082 7.344,-4.117 2.77,-1.036 5.672,-1.555 8.703,-1.555 3.496,0 6.238,0.727 8.235,2.176 1.996,1.453 2.992,3.355 2.992,5.711 0,4.457 -2.461,7.007 -7.383,7.652 -1.293,0.156 -2.5,0.313 -3.613,0.469 -1.114,0.156 -2.407,0.336 -3.883,0.543 -4.895,0.672 -8.625,2.465 -11.188,5.379 -2.566,2.914 -3.847,6.429 -3.847,10.547 0,4.82 1.613,8.781 4.836,11.89 3.226,3.106 7.765,4.66 13.617,4.66 3.496,0 6.785,-0.558 9.867,-1.672 3.082,-1.113 5.918,-2.523 8.508,-4.234 l -4.778,-7.07 c -2.074,1.297 -4.3,2.343 -6.683,3.148 -2.383,0.801 -4.817,1.203 -7.301,1.203 -2.644,0 -4.883,-0.672 -6.723,-2.019 -1.839,-1.348 -2.757,-3.367 -2.757,-6.059 0,-1.605 0.621,-3.109 1.863,-4.508 1.246,-1.398 3.305,-2.316 6.18,-2.757 0.75,-0.129 1.656,-0.266 2.718,-0.411 1.063,-0.14 2.278,-0.289 3.653,-0.445 5.281,-0.648 9.187,-2.562 11.711,-5.75 2.523,-3.184 3.789,-6.707 3.789,-10.566 0,-5.203 -1.801,-9.246 -5.403,-12.121 -3.597,-2.875 -8.429,-4.313 -14.488,-4.313 -8.519,0 -15.734,2.59 -21.641,7.77 z m 52.707,33.023 0,12.234 8.122,0 0,-12.234 5.902,0 0,-6.215 -5.902,0 0,-23.465 c 0,-2.019 0.957,-3.031 2.875,-3.031 l 3.027,0 0,-7.613 -4.234,0 c -2.821,0 -5.161,0.855 -7.012,2.562 -1.852,1.711 -2.778,4.157 -2.778,7.344 l 0,24.203 -4.039,0 0,6.215 4.039,0 z m 55.157,-23.23 -25.098,0 c 0,-3.317 0.902,-5.801 2.699,-7.461 1.801,-1.657 4.102,-2.485 6.899,-2.485 3.34,0 6.293,1.293 8.855,3.883 l 5.867,-5.012 c -1.996,-2.328 -4.242,-3.992 -6.742,-4.992 -2.496,-0.996 -5.105,-1.496 -7.828,-1.496 -4.141,0 -8.156,1.344 -12.043,4.024 -3.883,2.679 -5.824,8.164 -5.824,16.453 0,7.843 1.793,13.269 5.379,16.273 3.586,3.008 7.336,4.508 11.246,4.508 4.43,0 8.301,-1.535 11.617,-4.602 3.313,-3.07 4.973,-7.207 4.973,-12.414 l 0,-6.679 z m -25.098,6.679 17.016,0 c -0.129,3.032 -0.985,5.348 -2.563,6.953 -1.582,1.606 -3.562,2.411 -5.945,2.411 -2.406,0 -4.41,-0.805 -6,-2.411 -1.594,-1.605 -2.43,-3.921 -2.508,-6.953 z m 36.199,-23.773 0,40.324 8.117,0 0,-40.324 -8.117,0 z m 0,48.48 0,8.121 8.117,0 0,-8.121 -8.117,0 z m 21.199,-48.48 0,40.324 8.122,0 0,-4.312 0.152,0 c 2.512,3.183 6.008,4.777 10.488,4.777 3.137,0 6.16,-1.192 9.074,-3.574 2.911,-2.383 4.368,-5.852 4.368,-10.41 l 0,-26.805 -8.118,0 0,24.008 c 0,2.718 -0.757,4.843 -2.273,6.371 -1.516,1.527 -3.398,2.293 -5.652,2.293 -2.332,0 -4.254,-0.766 -5.77,-2.293 -1.516,-1.528 -2.269,-3.653 -2.269,-6.371 l 0,-24.008 -8.122,0 z m 45.055,0 0,56.601 8.117,0 0,-20.589 c 1.504,1.421 3.09,2.578 4.758,3.457 1.672,0.878 3.555,1.32 5.653,1.32 2.46,0 4.585,-0.5 6.371,-1.496 1.789,-0.996 3.265,-2.246 4.429,-3.75 1.114,-1.449 1.871,-3.137 2.274,-5.067 0.402,-1.929 0.601,-5.355 0.601,-10.277 0,-4.973 -0.199,-8.434 -0.601,-10.391 -0.403,-1.957 -1.16,-3.644 -2.274,-5.07 -1.164,-1.527 -2.64,-2.777 -4.429,-3.75 -1.786,-0.969 -3.911,-1.457 -6.371,-1.457 -4.141,0 -7.614,1.555 -10.411,4.664 l 0,-4.195 -8.117,0 z m 16.082,32.672 c -3.808,0 -6.086,-1.364 -6.836,-4.082 -0.754,-2.719 -1.129,-5.516 -1.129,-8.391 0,-2.953 0.375,-5.789 1.129,-8.508 0.75,-2.719 3.028,-4.078 6.836,-4.078 3.809,0 6.094,1.309 6.856,3.922 0.765,2.617 1.148,5.504 1.148,8.664 0,3.082 -0.383,5.93 -1.148,8.547 -0.762,2.617 -3.047,3.926 -6.856,3.926 z m 27.571,-19.153 0,26.805 8.121,0 0,-24.047 c 0,-2.746 0.757,-4.875 2.273,-6.39 1.516,-1.516 3.438,-2.274 5.77,-2.274 2.25,0 4.136,0.758 5.652,2.274 1.512,1.515 2.269,3.644 2.269,6.39 l 0,24.047 8.122,0 0,-40.324 -8.122,0 0,4.273 -0.152,0 c -2.516,-3.16 -5.984,-4.742 -10.414,-4.742 -3.184,0 -6.234,1.188 -9.148,3.555 -2.914,2.371 -4.371,5.847 -4.371,10.433 z m 45.054,-13.519 0,40.324 8.121,0 0,-4.312 0.153,0 c 2.515,3.183 6.011,4.777 10.492,4.777 2.949,0 5.762,-1.035 8.43,-3.109 l -5.868,-6.993 c -1.761,1.321 -3.547,1.985 -5.359,1.985 -1.996,0 -3.801,-0.668 -5.422,-2.004 -1.617,-1.332 -2.426,-3.477 -2.426,-6.426 l 0,-24.242 -8.121,0 z m 55.891,0.039 0,4.156 c -2.82,-3.109 -6.293,-4.664 -10.41,-4.664 -2.641,0 -4.848,0.527 -6.621,1.574 -1.778,1.051 -3.118,2.157 -4.024,3.325 -1.164,1.5 -1.961,3.093 -2.387,4.777 -0.429,1.683 -0.64,5.32 -0.64,10.914 0,5.594 0.211,9.234 0.64,10.918 0.426,1.683 1.223,3.289 2.387,4.816 0.906,1.141 2.246,2.246 4.024,3.321 1.773,1.074 3.98,1.613 6.621,1.613 3.937,0 7.406,-1.594 10.41,-4.777 l 0,4.312 8.121,0 0,-39.391 c 0,-6.062 -1.77,-10.531 -5.305,-13.406 -3.535,-2.871 -7.594,-4.308 -12.176,-4.308 -2.589,0 -5.128,0.621 -7.613,1.863 -2.488,1.242 -4.625,2.875 -6.41,4.894 l 6.293,5.012 c 0.984,-0.984 2.156,-1.84 3.516,-2.562 1.359,-0.727 2.816,-1.09 4.371,-1.09 2.691,0 4.898,0.75 6.621,2.254 1.722,1.5 2.582,3.652 2.582,6.449 z m -15.965,20.082 c 0,-3.234 0.086,-5.387 0.254,-6.449 0.168,-1.059 0.613,-2.043 1.34,-2.95 0.543,-0.726 1.347,-1.425 2.406,-2.097 1.062,-0.676 2.41,-1.012 4.043,-1.012 1.578,0 2.894,0.336 3.941,1.012 1.051,0.672 1.86,1.371 2.43,2.097 0.699,0.907 1.133,1.891 1.301,2.95 0.168,1.062 0.25,3.215 0.25,6.449 0,3.238 -0.082,5.387 -0.25,6.449 -0.168,1.063 -0.602,2.059 -1.301,2.992 -0.57,0.7 -1.379,1.391 -2.43,2.078 -1.047,0.688 -2.363,1.032 -3.941,1.032 -1.633,0 -2.981,-0.344 -4.043,-1.032 -1.059,-0.687 -1.863,-1.378 -2.406,-2.078 -0.727,-0.933 -1.172,-1.929 -1.34,-2.992 -0.168,-1.062 -0.254,-3.211 -0.254,-6.449 z"/><path id="path3670" style="fill:#000000;fill-opacity:1;fill-rule:nonzero;stroke:none" d="m 103.754,243.09 -32.059,127.984 20.551,0 20.117,-91.004 0.352,0 24.855,91.004 13.969,0 24.859,-91.004 0.352,0 20.113,91.004 20.555,0 -32.059,-127.984 -16.164,0 -24.507,92.23 -0.352,0 -24.422,-92.23 -16.16,0 z"/><path id="path3672" style="fill:#000000;fill-opacity:1;fill-rule:nonzero;stroke:none" d="m 230.359,243.09 0,91.18 18.36,0 0,-91.18 -18.36,0 z m 0,109.625 0,18.359 18.36,0 0,-18.359 -18.36,0 z"/><path id="path3674" style="fill:#000000;fill-opacity:1;fill-rule:nonzero;stroke:none" d="m 277.688,265.137 0,105.937 18.359,0 0,-104.441 c 0,-4.219 2.285,-6.324 6.851,-6.324 l 6.235,0 0,-17.219 -8.082,0 c -6.672,0 -12.238,1.613 -16.688,4.832 -4.453,3.281 -6.675,9.016 -6.675,17.215 z"/><path id="path3676" style="fill:#000000;fill-opacity:1;fill-rule:nonzero;stroke:none" d="m 328.488,258.285 12.825,12.653 c 7.964,-7.79 17.539,-11.684 28.722,-11.684 5.211,0 9.516,0.965 12.914,2.898 3.395,1.993 5.094,4.918 5.094,8.786 0,5.324 -3.719,8.312 -11.156,8.957 l -16.164,1.496 c -7.551,0.582 -13.817,3.07 -18.793,7.464 -4.981,4.395 -7.469,10.508 -7.469,18.36 0,9.25 3.25,16.25 9.75,20.992 6.5,4.742 14.578,7.113 24.242,7.113 7.965,0 14.789,-1.14 20.469,-3.422 5.68,-2.226 10.777,-5.214 15.285,-8.964 l -11.336,-13.348 c -3.625,2.457 -7.375,4.477 -11.242,6.059 -3.863,1.582 -8.258,2.371 -13.176,2.371 -5.855,0 -9.926,-1.051 -12.211,-3.161 -2.281,-2.046 -3.422,-4.656 -3.422,-7.816 0,-1.992 0.848,-3.836 2.547,-5.531 1.699,-1.699 4.86,-2.727 9.485,-3.078 l 15.109,-1.051 c 9.43,-0.649 16.191,-3.574 20.293,-8.789 4.098,-5.152 6.148,-11.328 6.148,-18.531 0,-8.957 -3.66,-15.871 -10.98,-20.731 -7.32,-4.859 -16.25,-7.293 -26.793,-7.293 -15.164,0 -28.547,5.418 -40.141,16.25 z"/><path id="path3678" style="fill:#000000;fill-opacity:1;fill-rule:nonzero;stroke:none" d="m 433.285,334.27 0,27.668 18.36,0 0,-27.668 13.351,0 0,-14.055 -13.351,0 0,-53.059 c 0,-4.566 2.168,-6.847 6.5,-6.847 l 6.851,0 0,-17.219 -9.574,0 c -6.383,0 -11.684,1.933 -15.902,5.801 -4.153,3.863 -6.235,9.394 -6.235,16.601 l 0,54.723 -9.137,0 0,14.055 9.137,0 z"/><path id="path3680" style="fill:#000000;fill-opacity:1;fill-rule:nonzero;stroke:none" d="m 561.055,281.738 -56.742,0 c 0,-7.492 2.019,-13.117 6.058,-16.863 4.098,-3.75 9.313,-5.621 15.637,-5.621 7.551,0 14.23,2.926 20.023,8.785 l 13.27,-11.336 c -4.512,-5.265 -9.606,-9.047 -15.285,-11.328 -5.621,-2.227 -11.508,-3.34 -17.657,-3.34 -9.371,0 -18.445,3.016 -27.234,9.051 -8.781,6.09 -13.176,18.5 -13.176,37.242 0,17.746 4.043,30.012 12.125,36.809 8.141,6.789 16.633,10.183 25.473,10.183 10.012,0 18.769,-3.48 26.266,-10.453 7.496,-6.91 11.242,-16.246 11.242,-28.019 l 0,-15.11 z m -56.742,15.11 38.472,0 c -0.293,6.851 -2.226,12.093 -5.801,15.726 -3.566,3.629 -8.05,5.442 -13.437,5.442 -5.445,0 -9.984,-1.813 -13.617,-5.442 -3.571,-3.633 -5.442,-8.875 -5.617,-15.726 z"/><path id="path3682" style="fill:#000000;fill-opacity:1;fill-rule:nonzero;stroke:none" d="m 586.816,243.09 0,91.18 18.36,0 0,-9.754 0.351,0 c 5.684,7.207 13.59,10.804 23.715,10.804 6.68,0 13.035,-2.34 19.063,-7.023 l -13.262,-15.813 c -3.984,2.989 -8.023,4.481 -12.125,4.481 -4.508,0 -8.602,-1.524 -12.293,-4.567 -3.633,-2.988 -5.449,-7.82 -5.449,-14.496 l 0,-54.812 -18.36,0 z"/></g></g><rect style="fill:#f0c900;fill-opacity:1" id="rect1776" width="808.14929" height="401.39978" x="44.830582" y="90.520721"/><g inkscape:groupmode="layer" id="layer2" inkscape:label="Schrift 2"><g id="g71123" transform="translate(-3.6531136e-7,-6.6551653)"><g aria-label="Kreis Neuland" id="text53085-9" style="font-size:66.6667px"><path d="m 254.52464,428.10509 v -47.42841 h 7.19401 v 24.44663 h 0.16277 l 19.4987,-24.44663 h 8.56121 l -15.20183,18.71746 16.79688,28.71095 h -8.52865 l -12.95574,-23.17709 -8.33334,8.72396 v 14.45313 z" style="-inkscape-font-specification:'Alte DIN 1451 Mittelschrift'" id="path3004"/><path d="m 295.93091,428.10509 v -33.78908 h 6.80339 v 3.61329 h 0.13021 q 3.15755,-4.00391 8.78907,-4.00391 3.71094,0 7.0638,2.60416 l -4.91536,5.85938 q -2.21355,-1.66015 -4.49219,-1.66015 -2.50652,0 -4.5573,1.6927 -2.01823,1.66016 -2.01823,5.3711 v 20.31251 z" style="-inkscape-font-specification:'Alte DIN 1451 Mittelschrift'" id="path3006"/><path d="m 347.85152,413.78217 h -21.02866 q 0,4.16667 2.2461,6.25 2.27864,2.08334 5.79427,2.08334 4.19922,0 7.42188,-3.25521 l 4.91537,4.19922 q -2.50652,2.92969 -5.66407,4.19922 -3.125,1.23698 -6.54297,1.23698 -5.20834,0 -10.09115,-3.35287 -4.88282,-3.38542 -4.88282,-13.80209 0,-9.86329 4.49219,-13.63933 4.52474,-3.77604 9.44011,-3.77604 5.56641,0 9.73308,3.8737 4.16667,3.84114 4.16667,10.38412 z m -21.02866,-5.59896 h 14.25782 q -0.16276,-3.8086 -2.14844,-5.82683 -1.98568,-2.01823 -4.98047,-2.01823 -3.02734,0 -5.04557,2.01823 -1.98568,2.01823 -2.08334,5.82683 z" style="-inkscape-font-specification:'Alte DIN 1451 Mittelschrift'" id="path3008"/><path d="m 355.20829,428.10509 v -33.78908 h 6.80339 v 33.78908 z m 0,-40.62502 v -6.80339 h 6.80339 v 6.80339 z" style="-inkscape-font-specification:'Alte DIN 1451 Mittelschrift'" id="path3010"/><path d="m 367.25257,422.47358 4.75261,-4.6875 q 4.42708,4.32943 10.64453,4.32943 2.89714,0 4.78516,-1.07422 1.88802,-1.10677 1.88802,-3.25521 0,-2.96224 -4.13411,-3.32032 l -5.98959,-0.55338 q -4.19922,-0.32552 -6.96615,-2.76693 -2.76693,-2.44141 -2.76693,-6.80339 0,-5.14323 3.61328,-7.77995 3.61329,-2.63672 8.98438,-2.63672 4.42709,0 7.58464,1.26953 3.15756,1.23698 5.66407,3.32031 l -4.19922,4.94792 q -2.01823,-1.36719 -4.16667,-2.24609 -2.14844,-0.87891 -4.88282,-0.87891 -3.25521,0 -4.52474,1.17188 -1.26953,1.13932 -1.26953,2.89713 0,1.10677 0.94401,2.05079 0.94401,0.94401 3.51563,1.13932 l 5.59896,0.39062 q 5.24089,0.35808 7.51954,3.25521 2.27864,2.86459 2.27864,6.8685 0,4.98047 -4.06901,7.68229 -4.06901,2.70183 -9.92839,2.70183 -8.431,0 -14.87631,-6.02214 z" style="-inkscape-font-specification:'Alte DIN 1451 Mittelschrift'" id="path3012"/><path d="m 419.56379,428.10509 v -47.42841 h 6.80339 l 21.45184,33.72398 h 0.13021 v -33.72398 h 7.22656 v 47.42841 h -6.80339 l -21.45183,-33.72397 h -0.16276 v 33.72397 z" style="-inkscape-font-specification:'Alte DIN 1451 Mittelschrift'" id="path3014"/><path d="m 490.55992,413.78217 h -21.02865 q 0,4.16667 2.24609,6.25 2.27865,2.08334 5.79427,2.08334 4.19923,0 7.42188,-3.25521 l 4.91537,4.19922 q -2.50651,2.92969 -5.66407,4.19922 -3.125,1.23698 -6.54297,1.23698 -5.20833,0 -10.09115,-3.35287 -4.88281,-3.38542 -4.88281,-13.80209 0,-9.86329 4.49219,-13.63933 4.52474,-3.77604 9.44011,-3.77604 5.5664,0 9.73307,3.8737 4.16667,3.84114 4.16667,10.38412 z m -21.02865,-5.59896 h 14.25782 q -0.16277,-3.8086 -2.14844,-5.82683 -1.98568,-2.01823 -4.98047,-2.01823 -3.02735,0 -5.04558,2.01823 -1.98568,2.01823 -2.08333,5.82683 z" style="-inkscape-font-specification:'Alte DIN 1451 Mittelschrift'" id="path3016"/><path d="m 497.72139,416.77696 v -22.46095 h 6.80339 v 20.14975 q 0,3.45052 1.88802,5.3711 1.92057,1.88802 4.85026,1.88802 2.83203,0 4.72006,-1.88802 1.92057,-1.92058 1.92057,-5.3711 v -20.14975 h 6.80339 v 33.78908 h -6.80339 v -3.58073 h -0.13021 q -3.15755,3.97136 -8.72396,3.97136 -4.00391,0 -7.6823,-2.96224 -3.64583,-2.9948 -3.64583,-8.75652 z" style="-inkscape-font-specification:'Alte DIN 1451 Mittelschrift'" id="path3018"/><path d="m 533.49614,419.93452 v -39.25784 h 6.80339 v 38.70445 q 0,2.34375 2.53906,2.34375 h 2.3112 v 6.38021 H 542.155 q -3.71094,0 -6.1849,-1.79036 -2.47396,-1.82292 -2.47396,-6.38021 z" style="-inkscape-font-specification:'Alte DIN 1451 Mittelschrift'" id="path3020"/><path d="m 568.58729,428.2353 v -2.99479 h -0.13021 q -0.94401,1.75781 -2.83203,2.53906 -2.01823,0.84636 -5.27344,0.84636 -5.59896,-0.13021 -8.46355,-2.9948 -3.125,-2.86458 -3.125,-7.32422 0,-4.23177 2.70183,-7.09636 2.70182,-2.86458 7.97526,-2.92969 h 9.14714 v -3.58073 q 0.0325,-4.49219 -6.73828,-4.36198 -2.34375,0 -3.90625,0.52083 -1.52995,0.6836 -2.3112,2.11589 l -5.20834,-4.10156 q 3.77604,-5.04558 11.10027,-4.91537 6.15234,-0.0651 9.89583,2.40885 3.67839,2.57162 3.7435,8.72397 v 23.14454 z m 0,-11.88152 v -2.47396 h -7.91016 q -5.79427,0.16276 -5.72917,4.10157 0,1.69271 1.4974,2.92969 1.43229,1.33463 4.72005,1.33463 4.16667,0.0651 5.85938,-1.00911 1.5625,-1.07422 1.5625,-4.88282 z" style="-inkscape-font-specification:'Alte DIN 1451 Mittelschrift'" id="path3022"/><path d="m 582.71492,428.10509 v -33.78908 h 6.80339 v 3.61329 h 0.1302 q 3.15756,-4.00391 8.78907,-4.00391 3.93881,0 7.58464,2.99479 3.67839,2.99479 3.67839,8.72396 v 22.46095 h -6.80339 v -20.1172 q 0,-3.41797 -1.92057,-5.33854 -1.88803,-1.92057 -4.72006,-1.92057 -2.92969,0 -4.85026,1.92057 -1.88802,1.92057 -1.88802,5.33854 v 20.1172 z" style="-inkscape-font-specification:'Alte DIN 1451 Mittelschrift'" id="path3024"/><path d="m 638.67197,428.10509 v -3.51562 q -3.54818,3.90625 -8.72396,3.90625 -3.12501,0 -5.3711,-1.20443 -2.2461,-1.23698 -3.67839,-3.15755 -1.43229,-1.79037 -1.92057,-4.23178 -0.48828,-2.47396 -0.48828,-8.72396 0,-6.1849 0.48828,-8.59375 0.48828,-2.44141 1.92057,-4.26433 1.43229,-1.88802 3.67839,-3.125 2.24609,-1.26953 5.3711,-1.26953 2.60416,0 4.72005,1.10677 2.11589,1.10677 4.00391,2.89714 v -17.25262 h 6.80339 v 47.42841 z m -6.64063,-27.37631 q -4.81771,0 -5.79427,3.28776 -0.94401,3.28776 -0.94401,7.16146 0,3.97136 0.94401,7.25912 0.97656,3.28776 5.79427,3.28776 4.72006,0 5.66407,-3.41797 0.97656,-3.41797 0.97656,-7.12891 0,-3.61328 -0.97656,-7.03125 -0.94401,-3.41797 -5.66407,-3.41797 z" style="-inkscape-font-specification:'Alte DIN 1451 Mittelschrift'" id="path3026"/></g><g aria-label="Bananenrepublik" id="text53085-3" style="font-size:66.6667px"><path d="m 214.27397,506.64742 v -47.42841 h 18.39194 q 6.93359,0 10.48177,3.58073 3.58073,3.54818 3.58073,9.14714 0,2.92969 -1.43229,5.63151 -1.43229,2.70183 -5.56641,4.5573 v 0.13021 q 3.90625,0.91146 5.82683,4.13411 1.92057,3.19011 1.92057,6.80339 0,6.15235 -3.9388,9.79818 -3.90625,3.64584 -9.2448,3.64584 z m 18.26173,-21.06121 h -11.06772 v 14.29037 h 11.06772 q 4.00391,0 5.85938,-2.14844 1.88802,-2.18099 1.88802,-4.98047 0,-2.79948 -1.88802,-4.98047 -1.85547,-2.18099 -5.85938,-2.18099 z m -0.65104,-19.98699 H 221.46798 V 479.206 h 10.41668 q 3.8737,0 5.76172,-1.98568 1.88802,-1.98568 1.88802,-4.81771 0,-2.73438 -1.88802,-4.75261 -1.88802,-2.05078 -5.76172,-2.05078 z" style="-inkscape-font-specification:'Alte DIN 1451 Mittelschrift'" id="path3053"/><path d="m 272.24926,506.77763 v -2.99479 h -0.13021 q -0.94401,1.75781 -2.83203,2.53906 -2.01823,0.84635 -5.27344,0.84635 -5.59896,-0.1302 -8.46355,-2.99479 -3.125,-2.86458 -3.125,-7.32422 0,-4.23178 2.70183,-7.09636 2.70182,-2.86458 7.97526,-2.92969 h 9.14714 v -3.58073 q 0.0326,-4.49219 -6.73828,-4.36198 -2.34376,0 -3.90626,0.52083 -1.52995,0.6836 -2.3112,2.11589 l -5.20833,-4.10157 q 3.77604,-5.04557 11.10026,-4.91536 6.15235,-0.0651 9.89584,2.40885 3.67839,2.57162 3.74349,8.72397 v 23.14454 z m 0,-11.88152 v -2.47396 h -7.91016 q -5.79427,0.16276 -5.72917,4.10157 0,1.69271 1.4974,2.92969 1.43229,1.33463 4.72005,1.33463 4.16667,0.0651 5.85938,-1.00911 1.5625,-1.07422 1.5625,-4.88282 z" style="-inkscape-font-specification:'Alte DIN 1451 Mittelschrift'" id="path3055"/><path d="m 286.37687,506.64742 v -33.78908 h 6.80339 v 3.61328 h 0.13021 q 3.15756,-4.00391 8.78907,-4.00391 3.9388,0 7.58464,2.9948 3.67839,2.99479 3.67839,8.72396 v 22.46095 h -6.80339 v -20.1172 q 0,-3.41797 -1.92058,-5.33854 -1.88802,-1.92058 -4.72005,-1.92058 -2.92969,0 -4.85026,1.92058 -1.88803,1.92057 -1.88803,5.33854 v 20.1172 z" style="-inkscape-font-specification:'Alte DIN 1451 Mittelschrift'" id="path3057"/><path d="m 340.05528,506.77763 v -2.99479 h -0.13021 q -0.94401,1.75781 -2.83203,2.53906 -2.01823,0.84635 -5.27344,0.84635 -5.59896,-0.1302 -8.46355,-2.99479 -3.125,-2.86458 -3.125,-7.32422 0,-4.23178 2.70182,-7.09636 2.70183,-2.86458 7.97527,-2.92969 h 9.14714 v -3.58073 q 0.0326,-4.49219 -6.73829,-4.36198 -2.34375,0 -3.90625,0.52083 -1.52995,0.6836 -2.3112,2.11589 l -5.20833,-4.10157 q 3.77604,-5.04557 11.10026,-4.91536 6.15235,-0.0651 9.89584,2.40885 3.67839,2.57162 3.74349,8.72397 v 23.14454 z m 0,-11.88152 v -2.47396 h -7.91016 q -5.79428,0.16276 -5.72917,4.10157 0,1.69271 1.4974,2.92969 1.43229,1.33463 4.72005,1.33463 4.16667,0.0651 5.85938,-1.00911 1.5625,-1.07422 1.5625,-4.88282 z" style="-inkscape-font-specification:'Alte DIN 1451 Mittelschrift'" id="path3059"/><path d="m 354.18289,506.64742 v -33.78908 h 6.80339 v 3.61328 h 0.13021 q 3.15755,-4.00391 8.78906,-4.00391 3.93881,0 7.58464,2.9948 3.67839,2.99479 3.67839,8.72396 v 22.46095 h -6.80339 v -20.1172 q 0,-3.41797 -1.92057,-5.33854 -1.88802,-1.92058 -4.72006,-1.92058 -2.92969,0 -4.85026,1.92058 -1.88802,1.92057 -1.88802,5.33854 v 20.1172 z" style="-inkscape-font-specification:'Alte DIN 1451 Mittelschrift'" id="path3061"/><path d="m 415.96678,492.3245 h -21.02865 q 0,4.16666 2.24609,6.25 2.27865,2.08333 5.79427,2.08333 4.19923,0 7.42188,-3.25521 l 4.91537,4.19922 q -2.50651,2.92969 -5.66406,4.19923 -3.12501,1.23698 -6.54298,1.23698 -5.20833,0 -10.09115,-3.35287 -4.88281,-3.38542 -4.88281,-13.80209 0,-9.86329 4.49219,-13.63933 4.52474,-3.77605 9.44011,-3.77605 5.5664,0 9.73307,3.8737 4.16667,3.84115 4.16667,10.38412 z m -21.02865,-5.59897 h 14.25782 q -0.16276,-3.80859 -2.14844,-5.82682 -1.98568,-2.01823 -4.98047,-2.01823 -3.02735,0 -5.04558,2.01823 -1.98568,2.01823 -2.08333,5.82682 z" style="-inkscape-font-specification:'Alte DIN 1451 Mittelschrift'" id="path3063"/><path d="m 423.12825,506.64742 v -33.78908 h 6.80339 v 3.61328 h 0.1302 q 3.15756,-4.00391 8.78907,-4.00391 3.93881,0 7.58464,2.9948 3.67839,2.99479 3.67839,8.72396 v 22.46095 h -6.80339 v -20.1172 q 0,-3.41797 -1.92057,-5.33854 -1.88803,-1.92058 -4.72006,-1.92058 -2.92969,0 -4.85026,1.92058 -1.88802,1.92057 -1.88802,5.33854 v 20.1172 z" style="-inkscape-font-specification:'Alte DIN 1451 Mittelschrift'" id="path3065"/><path d="m 458.903,506.64742 v -33.78908 h 6.80339 v 3.61328 h 0.1302 q 3.15756,-4.00391 8.78907,-4.00391 3.71094,0 7.06381,2.60417 l -4.91537,5.85938 q -2.21354,-1.66016 -4.49219,-1.66016 -2.50651,0 -4.55729,1.69271 -2.01823,1.66016 -2.01823,5.3711 v 20.31251 z" style="-inkscape-font-specification:'Alte DIN 1451 Mittelschrift'" id="path3067"/><path d="m 510.82359,492.3245 h -21.02865 q 0,4.16666 2.24609,6.25 2.27865,2.08333 5.79428,2.08333 4.19922,0 7.42187,-3.25521 l 4.91537,4.19922 q -2.50651,2.92969 -5.66406,4.19923 -3.12501,1.23698 -6.54298,1.23698 -5.20833,0 -10.09115,-3.35287 -4.88281,-3.38542 -4.88281,-13.80209 0,-9.86329 4.49219,-13.63933 4.52474,-3.77605 9.44011,-3.77605 5.56641,0 9.73308,3.8737 4.16666,3.84115 4.16666,10.38412 z m -21.02865,-5.59897 h 14.25782 q -0.16276,-3.80859 -2.14844,-5.82682 -1.98568,-2.01823 -4.98047,-2.01823 -3.02735,0 -5.04558,2.01823 -1.98568,2.01823 -2.08333,5.82682 z" style="-inkscape-font-specification:'Alte DIN 1451 Mittelschrift'" id="path3069"/><path d="m 517.98506,520.3193 v -47.46096 h 6.80339 v 3.54818 q 3.54818,-3.93881 8.72396,-3.93881 3.09245,0 5.33855,1.26954 2.24609,1.23698 3.71093,3.125 1.39975,1.82292 1.88803,4.26432 0.52083,2.40886 0.52083,8.65886 0,6.21745 -0.52083,8.65886 -0.48828,2.44141 -1.88803,4.23177 -1.46484,1.92058 -3.71093,3.15756 -2.2461,1.20443 -5.33855,1.20443 -2.63672,0 -4.75261,-1.07422 -2.08333,-1.07422 -3.97135,-2.89714 v 17.25261 z m 13.47657,-20.05209 q 4.78516,0 5.72917,-3.28776 0.97656,-3.28777 0.97656,-7.19402 0,-3.90625 -0.97656,-7.19401 -0.94401,-3.32032 -5.72917,-3.32032 -4.78516,0 -5.72917,3.41797 -0.94401,3.41797 -0.94401,7.09636 0,3.67839 0.94401,7.09636 0.94401,3.38542 5.72917,3.38542 z" style="-inkscape-font-specification:'Alte DIN 1451 Mittelschrift'" id="path3071"/><path d="m 552.5554,495.31929 v -22.46095 h 6.80339 v 20.14975 q 0,3.45052 1.88802,5.3711 1.92058,1.88802 4.85027,1.88802 2.83203,0 4.72005,-1.88802 1.92057,-1.92058 1.92057,-5.3711 v -20.14975 h 6.80339 v 33.78908 h -6.80339 v -3.58073 h -0.1302 q -3.15756,3.97136 -8.72397,3.97136 -4.00391,0 -7.68229,-2.96225 -3.64584,-2.99479 -3.64584,-8.75651 z" style="-inkscape-font-specification:'Alte DIN 1451 Mittelschrift'" id="path3073"/><path d="m 588.33015,506.64742 v -47.42841 h 6.80339 v 17.25261 q 1.88802,-1.79036 3.97136,-2.89713 2.11588,-1.10678 4.7526,-1.10678 3.09245,0 5.33855,1.26954 2.24609,1.23698 3.71094,3.125 1.39974,1.82292 1.88802,4.26432 0.52083,2.40886 0.52083,8.59376 0,6.25 -0.52083,8.72396 -0.48828,2.44141 -1.88802,4.23177 -1.46485,1.92058 -3.71094,3.15756 -2.2461,1.20443 -5.33855,1.20443 -5.20833,0 -8.72396,-3.90626 v 3.51563 z m 13.47657,-27.37632 q -4.78516,0 -5.72917,3.41797 -0.94401,3.41797 -0.94401,7.03126 0,3.71094 0.94401,7.12891 0.94401,3.41797 5.72917,3.41797 4.78516,0 5.72917,-3.28776 0.97656,-3.28777 0.97656,-7.25912 0,-3.8737 -0.97656,-7.16146 -0.94401,-3.28777 -5.72917,-3.28777 z" style="-inkscape-font-specification:'Alte DIN 1451 Mittelschrift'" id="path3075"/><path d="m 622.90049,498.47684 v -39.25783 h 6.80339 v 38.70445 q 0,2.34375 2.53907,2.34375 h 2.3112 v 6.38021 h -2.9948 q -3.71094,0 -6.1849,-1.79037 -2.47396,-1.82291 -2.47396,-6.38021 z" style="-inkscape-font-specification:'Alte DIN 1451 Mittelschrift'" id="path3077"/><path d="m 640.28331,506.64742 v -33.78908 h 6.80339 v 33.78908 z m 0,-40.62502 v -6.80339 h 6.80339 v 6.80339 z" style="-inkscape-font-specification:'Alte DIN 1451 Mittelschrift'" id="path3079"/><path d="m 656.07106,506.64742 v -47.42841 h 6.80339 v 29.52475 h 0.1302 l 12.98829,-15.88542 h 8.13803 l -11.65365,13.21615 13.2487,20.57293 h -8.52865 l -8.98438,-15.78777 -5.33854,6.08724 v 9.70053 z" style="-inkscape-font-specification:'Alte DIN 1451 Mittelschrift'" id="path3081"/></g><g aria-label="Bad Gateway" transform="matrix(0.60628185,0,0,0.6080922,-47.709034,54.050282)" id="text22765" style="font-size:241.551px;white-space:pre"><path d="m 181.71826,411.99212 v -171.8456 h 66.63882 q 25.12225,0 37.97824,12.97393 12.97393,12.85598 12.97393,33.14249 0,10.61504 -5.18958,20.40446 -5.18957,9.78942 -20.16856,16.51227 v 0.47178 q 14.15338,3.30246 21.11212,14.97899 6.95875,11.5586 6.95875,24.65047 0,22.29157 -14.27133,35.50139 -14.15338,13.20982 -33.49633,13.20982 z m 66.16704,-76.3103 h -40.10124 v 51.77778 h 40.10124 q 14.50722,0 21.23007,-7.78436 6.8408,-7.9023 6.8408,-18.04556 0,-10.14325 -6.8408,-18.04555 -6.72285,-7.90231 -21.23007,-7.90231 z m -2.35889,-72.41812 h -37.74235 v 49.30094 h 37.74235 q 14.03543,0 20.87623,-7.19464 6.8408,-7.19463 6.8408,-17.45583 0,-9.90736 -6.8408,-17.21994 -6.8408,-7.43053 -20.87623,-7.43053 z" style="-inkscape-font-specification:'Alte DIN 1451 Mittelschrift Bold'" id="path3114"/><path d="m 391.77798,412.4639 v -10.85092 h -0.47178 q -3.4204,6.36902 -10.2612,9.1997 -7.31257,3.06656 -19.10706,3.06656 -20.28651,-0.47178 -30.66565,-10.85092 -11.3227,-10.37915 -11.3227,-26.53759 0,-15.33282 9.78942,-25.71197 9.78942,-10.37914 28.89648,-10.61503 h 33.14249 V 327.1898 q 0.11795,-16.27639 -24.41457,-15.80461 -8.49203,0 -14.15338,1.88712 -5.54341,2.47684 -8.37409,7.66641 l -18.87117,-14.86105 q 13.6816,-18.28144 40.21919,-17.80966 22.29157,-0.23589 35.85522,8.72791 13.32777,9.31764 13.56366,31.60921 v 83.85877 z m 0,-43.04986 v -8.9638 h -28.66059 q -20.99418,0.58972 -20.75829,14.86104 0,6.13313 5.42546,10.61504 5.18958,4.83574 17.102,4.83574 15.09694,0.23589 21.23007,-3.65629 5.66135,-3.89218 5.66135,-17.69173 z" style="-inkscape-font-specification:'Alte DIN 1451 Mittelschrift Bold'" id="path3116"/><path d="m 516.09183,411.99212 v -12.73804 q -12.85599,14.15338 -31.60921,14.15338 -11.32271,0 -19.4609,-4.36396 -8.13819,-4.4819 -13.32776,-11.44064 -5.18958,-6.48697 -6.95875,-15.33283 -1.76917,-8.96381 -1.76917,-31.60921 0,-22.40952 1.76917,-31.13744 1.76917,-8.84586 6.95875,-15.45077 5.18957,-6.8408 13.32776,-11.3227 8.13819,-4.59985 19.4609,-4.59985 9.43558,0 17.102,4.01012 7.66641,4.01013 14.50721,10.49709 v -62.51075 h 24.65047 v 171.8456 z m -24.06074,-99.19159 q -17.45584,0 -20.99418,11.91243 -3.4204,11.91242 -3.4204,25.94786 0,14.38926 3.4204,26.30169 3.53834,11.91243 20.99418,11.91243 17.102,0 20.5224,-12.38421 3.53834,-12.3842 3.53834,-25.82991 0,-13.09188 -3.53834,-25.47609 -3.4204,-12.3842 -20.5224,-12.3842 z" style="-inkscape-font-specification:'Alte DIN 1451 Mittelschrift Bold'" id="path3118"/><path d="m 684.04525,342.05084 v -24.65046 h 61.09542 v 35.02961 q 0,25.59402 -17.80967,43.28575 -17.80967,17.69172 -43.52164,17.69172 -20.28651,0 -34.08605,-9.67147 -13.6816,-9.78942 -19.69679,-21.11213 -4.24601,-7.54847 -5.89724,-16.51227 -1.65122,-8.96381 -1.65122,-39.9833 0,-31.01948 1.65122,-39.98329 1.65123,-8.96381 5.89724,-16.51228 6.01519,-11.20475 19.69679,-21.11212 13.79954,-9.90736 34.08605,-9.90736 24.41458,0 40.33713,15.09693 16.0405,14.979 20.05062,35.85523 h -27.48114 q -3.18451,-9.90737 -11.91243,-17.33789 -8.60997,-7.43052 -20.99418,-7.43052 -9.19969,0 -15.92255,3.77423 -6.72285,3.77423 -10.61503,8.72792 -5.07163,6.60491 -6.95875,14.50721 -1.76917,7.9023 -1.76917,34.32194 0,26.53759 1.76917,34.43989 1.88712,7.9023 6.95875,14.27132 3.89218,5.18958 10.61503,8.96381 6.72286,3.65629 15.92255,3.65629 14.86105,0 25.0043,-10.14325 10.2612,-10.14326 10.2612,-26.41964 v -8.84587 z" style="-inkscape-font-specification:'Alte DIN 1451 Mittelschrift Bold'" id="path3120"/><path d="m 838.31708,412.4639 v -10.85092 h -0.47178 q -3.4204,6.36902 -10.2612,9.1997 -7.31258,3.06656 -19.10706,3.06656 -20.28651,-0.47178 -30.66566,-10.85092 -11.3227,-10.37915 -11.3227,-26.53759 0,-15.33282 9.78942,-25.71197 9.78942,-10.37914 28.89648,-10.61503 h 33.1425 V 327.1898 q 0.11794,-16.27639 -24.41458,-15.80461 -8.49203,0 -14.15338,1.88712 -5.54341,2.47684 -8.37408,7.66641 l -18.87117,-14.86105 q 13.6816,-18.28144 40.21918,-17.80966 22.29157,-0.23589 35.85523,8.72791 13.32776,9.31764 13.56365,31.60921 v 83.85877 z m 0,-43.04986 v -8.9638 h -28.6606 q -20.99417,0.58972 -20.75828,14.86104 0,6.13313 5.42546,10.61504 5.18957,4.83574 17.102,4.83574 15.09693,0.23589 21.23007,-3.65629 5.66135,-3.89218 5.66135,-17.69173 z" style="-inkscape-font-specification:'Alte DIN 1451 Mittelschrift Bold'" id="path3122"/><path d="M 890.92044,412.11007 V 308.43657 H 878.65418 V 289.5654 h 12.26626 v -19.22501 l 24.65047,-26.30169 v 45.5267 h 17.92761 v 18.87117 h -17.92761 v 103.6735 z" style="-inkscape-font-specification:'Alte DIN 1451 Mittelschrift Bold'" id="path3124"/><path d="m 1050.8536,360.0964 h -76.19234 q 0,15.09694 8.13819,22.64541 8.25614,7.54847 20.99415,7.54847 15.2149,0 26.8914,-11.79449 l 17.8097,15.21489 q -9.0817,10.61503 -20.5224,15.21488 -11.3227,4.4819 -23.7069,4.4819 -18.87117,0 -36.56289,-12.14832 -17.69172,-12.26626 -17.69172,-50.0086 0,-35.73728 16.27638,-49.41888 16.39433,-13.6816 34.20403,-13.6816 20.1685,0 35.2655,14.03543 15.0969,13.91749 15.0969,37.6244 z m -76.19234,-20.28651 h 51.65984 q -0.5897,-13.79954 -7.7844,-21.11212 -7.1946,-7.31258 -18.0455,-7.31258 -10.9689,0 -18.28148,7.31258 -7.19463,7.31258 -7.54846,21.11212 z" style="-inkscape-font-specification:'Alte DIN 1451 Mittelschrift Bold'" id="path3126"/><path d="m 1173.8701,411.99212 -25.594,-85.62794 h -0.4718 l -25.5941,85.62794 h -21.7018 L 1061.3507,289.5654 h 26.0658 l 23.471,85.74588 h 0.4718 l 27.7171,-85.74588 h 17.9276 l 27.717,85.74588 h 0.4718 l 23.471,-85.74588 h 26.0658 l -39.1577,122.42672 z" style="-inkscape-font-specification:'Alte DIN 1451 Mittelschrift Bold'" id="path3128"/><path d="m 1315.9936,412.4639 v -10.85092 h -0.4718 q -3.4204,6.36902 -10.2612,9.1997 -7.3126,3.06656 -19.107,3.06656 -20.2866,-0.47178 -30.6657,-10.85092 -11.3227,-10.37915 -11.3227,-26.53759 0,-15.33282 9.7894,-25.71197 9.7894,-10.37914 28.8965,-10.61503 h 33.1425 V 327.1898 q 0.1179,-16.27639 -24.4146,-15.80461 -8.492,0 -14.1534,1.88712 -5.5434,2.47684 -8.374,7.66641 l -18.8712,-14.86105 q 13.6816,-18.28144 40.2192,-17.80966 22.2915,-0.23589 35.8552,8.72791 13.3278,9.31764 13.5636,31.60921 v 83.85877 z m 0,-43.04986 v -8.9638 h -28.6606 q -20.9942,0.58972 -20.7583,14.86104 0,6.13313 5.4255,10.61504 5.1895,4.83574 17.102,4.83574 15.0969,0.23589 21.23,-3.65629 5.6614,-3.89218 5.6614,-17.69173 z" style="-inkscape-font-specification:'Alte DIN 1451 Mittelschrift Bold'" id="path3130"/><path d="M 1393.4834,407.27433 1349.6079,289.5654 h 25.9479 l 29.0144,85.74588 h 0.4718 l 29.0144,-85.74588 h 26.0658 l -52.6034,147.78486 q -5.1896,14.15338 -14.2713,19.10706 -9.0818,5.07163 -20.2865,5.07163 h -8.2562 v -23.23513 h 7.3126 q 11.0868,0 14.7431,-10.61504 z" style="-inkscape-font-specification:'Alte DIN 1451 Mittelschrift Bold'" id="path3132"/></g><g aria-label="Internetkurort" id="text53085" style="font-size:66.6667px"><path d="M 257.45433,140.41944 V 92.991028 h 7.19401 v 47.428412 z" style="-inkscape-font-specification:'Alte DIN 1451 Mittelschrift'" id="path3155"/><path d="m 274.0559,140.41944 v -33.78908 h 6.80339 v 3.61328 h 0.13021 q 3.15755,-4.00391 8.78906,-4.00391 3.93881,0 7.58464,2.9948 3.67839,2.99479 3.67839,8.72396 v 22.46095 h -6.80339 v -20.1172 q 0,-3.41797 -1.92057,-5.33854 -1.88802,-1.92058 -4.72006,-1.92058 -2.92969,0 -4.85026,1.92058 -1.88802,1.92057 -1.88802,5.33854 v 20.1172 z" style="-inkscape-font-specification:'Alte DIN 1451 Mittelschrift'" id="path3157"/><path d="m 310.22128,140.45199 v -28.6133 h -3.38542 v -5.20833 h 3.38542 v -5.30599 l 6.80339,-7.259123 v 12.565113 h 4.94792 v 5.20833 h -4.94792 v 28.6133 z" style="-inkscape-font-specification:'Alte DIN 1451 Mittelschrift'" id="path3159"/><path d="m 354.36193,126.09651 h -21.02866 q 0,4.16667 2.2461,6.25001 2.27865,2.08333 5.79427,2.08333 4.19922,0 7.42188,-3.25521 l 4.91537,4.19922 q -2.50651,2.92969 -5.66407,4.19922 -3.125,1.23698 -6.54297,1.23698 -5.20833,0 -10.09115,-3.35286 -4.88281,-3.38542 -4.88281,-13.80209 0,-9.86329 4.49219,-13.63933 4.52474,-3.77605 9.4401,-3.77605 5.56641,0 9.73308,3.8737 4.16667,3.84115 4.16667,10.38412 z m -21.02866,-5.59896 h 14.25782 q -0.16276,-3.80859 -2.14843,-5.82682 -1.98568,-2.01823 -4.98048,-2.01823 -3.02734,0 -5.04557,2.01823 -1.98568,2.01823 -2.08334,5.82682 z" style="-inkscape-font-specification:'Alte DIN 1451 Mittelschrift'" id="path3161"/><path d="m 361.52339,140.41944 v -33.78908 h 6.80339 v 3.61328 h 0.13021 q 3.15755,-4.00391 8.78906,-4.00391 3.71094,0 7.06381,2.60417 l -4.91537,5.85938 q -2.21354,-1.66016 -4.49219,-1.66016 -2.50651,0 -4.55729,1.69271 -2.01823,1.66016 -2.01823,5.3711 v 20.31251 z" style="-inkscape-font-specification:'Alte DIN 1451 Mittelschrift'" id="path3163"/><path d="m 387.43486,140.41944 v -33.78908 h 6.80339 v 3.61328 h 0.1302 q 3.15756,-4.00391 8.78907,-4.00391 3.93881,0 7.58464,2.9948 3.67839,2.99479 3.67839,8.72396 v 22.46095 h -6.80339 v -20.1172 q 0,-3.41797 -1.92057,-5.33854 -1.88803,-1.92058 -4.72006,-1.92058 -2.92969,0 -4.85026,1.92058 -1.88802,1.92057 -1.88802,5.33854 v 20.1172 z" style="-inkscape-font-specification:'Alte DIN 1451 Mittelschrift'" id="path3165"/><path d="m 449.21875,126.09651 h -21.02866 q 0,4.16667 2.2461,6.25001 2.27865,2.08333 5.79427,2.08333 4.19922,0 7.42188,-3.25521 l 4.91537,4.19922 q -2.50651,2.92969 -5.66407,4.19922 -3.125,1.23698 -6.54297,1.23698 -5.20833,0 -10.09115,-3.35286 -4.88282,-3.38542 -4.88282,-13.80209 0,-9.86329 4.49219,-13.63933 4.52475,-3.77605 9.44011,-3.77605 5.56641,0 9.73308,3.8737 4.16667,3.84115 4.16667,10.38412 z m -21.02866,-5.59896 h 14.25782 q -0.16276,-3.80859 -2.14843,-5.82682 -1.98568,-2.01823 -4.98048,-2.01823 -3.02734,0 -5.04557,2.01823 -1.98568,2.01823 -2.08334,5.82682 z" style="-inkscape-font-specification:'Alte DIN 1451 Mittelschrift'" id="path3167"/><path d="m 456.77084,140.45199 v -28.6133 h -3.38542 v -5.20833 h 3.38542 v -5.30599 l 6.80339,-7.259123 v 12.565113 h 4.94792 v 5.20833 h -4.94792 v 28.6133 z" style="-inkscape-font-specification:'Alte DIN 1451 Mittelschrift'" id="path3169"/><path d="M 474.90236,140.41944 V 92.991028 h 6.80339 v 29.524752 h 0.1302 l 12.98829,-15.88542 h 8.13803 l -11.65365,13.21615 13.2487,20.57293 h -8.52865 l -8.98438,-15.78777 -5.33854,6.08724 v 9.70053 z" style="-inkscape-font-specification:'Alte DIN 1451 Mittelschrift'" id="path3171"/><path d="m 509.47268,129.09131 v -22.46095 h 6.80339 v 20.14975 q 0,3.45052 1.88802,5.3711 1.92058,1.88802 4.85027,1.88802 2.83203,0 4.72005,-1.88802 1.92058,-1.92058 1.92058,-5.3711 v -20.14975 h 6.80339 v 33.78908 h -6.80339 v -3.58073 h -0.13021 q -3.15756,3.97135 -8.72396,3.97135 -4.00391,0 -7.6823,-2.96224 -3.64584,-2.99479 -3.64584,-8.75651 z" style="-inkscape-font-specification:'Alte DIN 1451 Mittelschrift'" id="path3173"/><path d="m 545.24745,140.41944 v -33.78908 h 6.80339 v 3.61328 h 0.13021 q 3.15755,-4.00391 8.78906,-4.00391 3.71094,0 7.06381,2.60417 l -4.91537,5.85938 q -2.21354,-1.66016 -4.49219,-1.66016 -2.50651,0 -4.55729,1.69271 -2.01823,1.66016 -2.01823,5.3711 v 20.31251 z" style="-inkscape-font-specification:'Alte DIN 1451 Mittelschrift'" id="path3175"/><path d="m 569.49876,123.49235 q 0,-5.4362 0.84636,-8.10548 0.84635,-2.66927 2.79948,-4.81771 1.39974,-1.52995 3.84114,-2.92969 2.47396,-1.39974 6.44532,-1.39974 3.90625,0 6.38021,1.39974 2.47396,1.39974 3.8737,2.92969 1.95313,2.14844 2.79948,4.81771 0.84636,2.66928 0.84636,8.10548 0,5.53385 -0.84636,8.20313 -0.84635,2.66927 -2.79948,4.81771 -1.39974,1.5625 -3.8737,2.92969 -2.47396,1.36718 -6.38021,1.36718 -3.97136,0 -6.44532,-1.36718 -2.4414,-1.36719 -3.84114,-2.92969 -1.95313,-2.14844 -2.79948,-4.81771 -0.84636,-2.66928 -0.84636,-8.20313 z m 21.06121,0.0651 q 0,-3.67839 -0.39063,-5.17578 -0.35807,-1.4974 -1.26953,-2.86459 -1.79036,-2.47396 -5.46875,-2.47396 -3.74349,0 -5.46875,2.47396 -0.97657,1.36719 -1.33464,2.86459 -0.32552,1.49739 -0.32552,5.11068 0,3.71094 0.32552,5.24088 0.35807,1.4974 1.33464,2.83204 1.72526,2.47396 5.46875,2.47396 3.67839,0 5.46875,-2.47396 0.91146,-1.33464 1.26953,-2.83204 0.39063,-1.49739 0.39063,-5.17578 z" style="-inkscape-font-specification:'Alte DIN 1451 Mittelschrift'" id="path3177"/><path d="m 604.49226,140.41944 v -33.78908 h 6.80339 v 3.61328 h 0.13021 q 3.15755,-4.00391 8.78907,-4.00391 3.71094,0 7.0638,2.60417 l -4.91537,5.85938 q -2.21354,-1.66016 -4.49219,-1.66016 -2.50651,0 -4.55729,1.69271 -2.01823,1.66016 -2.01823,5.3711 v 20.31251 z" style="-inkscape-font-specification:'Alte DIN 1451 Mittelschrift'" id="path3179"/><path d="m 630.79435,140.45199 v -28.6133 h -3.38541 v -5.20833 h 3.38541 v -5.30599 l 6.80339,-7.259123 v 12.565113 h 4.94792 v 5.20833 h -4.94792 v 28.6133 z" style="-inkscape-font-specification:'Alte DIN 1451 Mittelschrift'" id="path3181"/></g></g></g><text xml:space="preserve" id="text32219" style="fill:black;fill-opacity:1;line-height:1.25;stroke:none;font-family:sans-serif;font-style:normal;font-weight:normal;font-size:40px;white-space:pre;shape-inside:url(#rect32221)"/></svg>