<svg xmlns="http://www.w3.org/2000/svg" version="1.1" viewBox="-5.0 -10.0 110.0 135.0">
 <path d="m75 28.125h-50c-7.8164 0-15.035 4.168-18.945 10.938-3.9062 6.7695-3.9062 15.105 0 21.875 3.9102 6.7695 11.129 10.938 18.945 10.938h50c7.8164 0 15.035-4.168 18.945-10.938 3.9062-6.7695 3.9062-15.105 0-21.875-3.9102-6.7695-11.129-10.938-18.945-10.938zm0 37.5h-50c-5.582 0-10.742-2.9766-13.531-7.8125-2.793-4.8359-2.793-10.789 0-15.625 2.7891-4.8359 7.9492-7.8125 13.531-7.8125h50c5.582 0 10.742 2.9766 13.531 7.8125 2.793 4.8359 2.793 10.789 0 15.625-2.7891 4.8359-7.9492 7.8125-13.531 7.8125zm3.125-15.625c0 0.82812-0.32812 1.625-0.91406 2.2109-0.58594 0.58594-1.3828 0.91406-2.2109 0.91406h-50c-1.7266 0-3.125-1.3984-3.125-3.125s1.3984-3.125 3.125-3.125h50c0.82812 0 1.625 0.32812 2.2109 0.91406 0.58594 0.58594 0.91406 1.3828 0.91406 2.2109z"/>
<text x="0.0" y="117.5" font-size="5.0" font-weight="bold" font-family="Arbeit Regular, Helvetica, Arial-Unicode, Arial, Sans-serif" fill="#000000">Created by Ricons</text><text x="0.0" y="122.5" font-size="5.0" font-weight="bold" font-family="Arbeit Regular, Helvetica, Arial-Unicode, Arial, Sans-serif" fill="#000000">from Noun Project</text></svg>