<svg xmlns="http://www.w3.org/2000/svg" xmlns:xlink="http://www.w3.org/1999/xlink" version="1.1" x="0px" y="0px" viewBox="0 0 100 125" enable-background="new 0 0 100 100" xml:space="preserve"><g><path d="M14,59.25h72c0.414,0,0.75-0.336,0.75-0.75V50h-73.5v8.5C13.25,58.914,13.587,59.25,14,59.25z"/><path d="M10.5,67.25h79c2.895,0,5.25-2.355,5.25-5.25V38c0-2.895-2.355-5.25-5.25-5.25h-79c-2.895,0-5.25,2.355-5.25,5.25v24   C5.25,64.895,7.605,67.25,10.5,67.25z M11.75,41.5c0-1.24,1.01-2.25,2.25-2.25h72c1.241,0,2.25,1.01,2.25,2.25v17   c0,1.241-1.009,2.25-2.25,2.25H14c-1.24,0-2.25-1.009-2.25-2.25V41.5z"/></g><text x="0" y="115" fill="#000000" font-size="5px" font-weight="bold" font-family="'Helvetica Neue', Helvetica, Arial-Unicode, Arial, Sans-serif">Created by Yeong Rong Kim</text><text x="0" y="120" fill="#000000" font-size="5px" font-weight="bold" font-family="'Helvetica Neue', Helvetica, Arial-Unicode, Arial, Sans-serif">from the Noun Project</text></svg>