<svg xmlns="http://www.w3.org/2000/svg" xmlns:xlink="http://www.w3.org/1999/xlink" version="1.1" x="0px" y="0px" viewBox="0 0 100 125" enable-background="new 0 0 100 100" xml:space="preserve"><g><path d="M94.164,29.916L78.473,12.654c-0.427-0.468-1.033-0.736-1.664-0.736H23.192c-0.631,0-1.238,0.268-1.665,0.737L5.835,29.917   C5.458,30.333,5.25,30.87,5.25,31.431v54.4c0,1.239,1.009,2.25,2.25,2.25h85c1.24,0,2.25-1.011,2.25-2.251v-54.4   C94.75,30.868,94.542,30.33,94.164,29.916z M79.126,73.016c0,0.414-0.336,0.75-0.75,0.75h-56.23c-0.414,0-0.75-0.336-0.75-0.75   V35.354c0-0.414,0.336-0.75,0.75-0.75h56.23c0.414,0,0.75,0.336,0.75,0.75V73.016z"/></g><text x="0" y="115" fill="#000000" font-size="5px" font-weight="bold" font-family="'Helvetica Neue', Helvetica, Arial-Unicode, Arial, Sans-serif">Created by Yeong Rong Kim</text><text x="0" y="120" fill="#000000" font-size="5px" font-weight="bold" font-family="'Helvetica Neue', Helvetica, Arial-Unicode, Arial, Sans-serif">from the Noun Project</text></svg>